<?xml version="1.0" encoding="UTF-8"?>
<svg version="1.1" xmlns="http://www.w3.org/2000/svg" width="179" height="50">
<path d="M0 0 C1.19109375 -0.03867187 1.19109375 -0.03867187 2.40625 -0.078125 C3.0971875 0.03015625 3.788125 0.1384375 4.5 0.25 C7.03966316 4.05949473 7.0872443 6.78507905 6.5 11.25 C5.375 13.1875 5.375 13.1875 3.5 14.25 C0.3125 14.9375 0.3125 14.9375 -2.5 15.25 C-2.5 15.91 -2.5 16.57 -2.5 17.25 C-5.97325181 18.4077506 -8.86067448 18.31866652 -12.5 18.25 C-12.5 15.94 -12.5 13.63 -12.5 11.25 C-11.51 10.92 -10.52 10.59 -9.5 10.25 C-8.54998712 8.18241371 -8.54998712 8.18241371 -7.9375 5.75 C-7.24609375 3.28125 -7.24609375 3.28125 -6.5 1.25 C-4.15897141 0.07948571 -2.60647047 0.0507754 0 0 Z " fill="#9B9999" transform="translate(17.5,23.75)"/>
<path d="M0 0 C4.72069752 0.11580355 4.72069752 0.11580355 7.1875 2.4375 C8.32491385 6.33720463 8.33308664 9.37870044 8.0625 13.4375 C6.33030072 15.16969928 4.04223192 14.65041761 1.6875 14.6875 C0.22183594 14.72617187 0.22183594 14.72617187 -1.2734375 14.765625 C-3.9375 14.4375 -3.9375 14.4375 -5.76953125 13.20703125 C-7.25514301 10.95625491 -7.30740835 9.55552831 -7.25 6.875 C-7.24613281 6.08996094 -7.24226563 5.30492187 -7.23828125 4.49609375 C-6.59690473 0.10641291 -3.81698584 0.09528452 0 0 Z " fill="#FFD200" transform="translate(32.9375,23.5625)"/>
<path d="M0 0 C0 2.64 0 5.28 0 8 C-0.99 8 -1.98 8 -3 8 C-3.309375 8.969375 -3.61875 9.93875 -3.9375 10.9375 C-5 14 -5 14 -6 15 C-8.9375 15.1875 -8.9375 15.1875 -12 15 C-14 13 -14 13 -14.375 9.0625 C-14.27973978 5.29972119 -14.27973978 5.29972119 -12.25 3.125 C-11.5075 2.75375 -10.765 2.3825 -10 2 C-9.071875 1.4121875 -9.071875 1.4121875 -8.125 0.8125 C-5.34988458 -0.24857354 -2.94352912 -0.13379678 0 0 Z " fill="#FFD200" transform="translate(40,8)"/>
<path d="M0 0 C1.32 0 2.64 0 4 0 C4.33 2.31 4.66 4.62 5 7 C5.78375 6.938125 6.5675 6.87625 7.375 6.8125 C8.674375 6.9053125 8.674375 6.9053125 10 7 C12.13586678 10.20380017 12.23132175 11.01939967 12.125 14.6875 C12.10695313 15.49574219 12.08890625 16.30398437 12.0703125 17.13671875 C12.03550781 18.05904297 12.03550781 18.05904297 12 19 C10.68 19 9.36 19 8 19 C7.67 16.03 7.34 13.06 7 10 C6.01 10 5.02 10 4 10 C4 12.97 4 15.94 4 19 C2.68 19 1.36 19 0 19 C0 12.73 0 6.46 0 0 Z " fill="#FFD200" transform="translate(106,15)"/>
<path d="M0 0 C1.32 0 2.64 0 4 0 C5.75 2 5.75 2 7 4 C7.66 2.68 8.32 1.36 9 0 C9.66 0 10.32 0 11 0 C12.625 2 12.625 2 14 4 C14.66 2.68 15.32 1.36 16 0 C17.32 0.33 18.64 0.66 20 1 C18.02 4.63 16.04 8.26 14 12 C13.34 12 12.68 12 12 12 C11.67 10.35 11.34 8.7 11 7 C10.34 7 9.68 7 9 7 C8.34 8.65 7.68 10.3 7 12 C4.39954125 9.6975881 3.15260817 7.50103323 1.8125 4.3125 C1.46832031 3.50425781 1.12414062 2.69601563 0.76953125 1.86328125 C0.51558594 1.24839844 0.26164063 0.63351563 0 0 Z " fill="#FFD200" transform="translate(133,22)"/>
<path d="M0 0 C1.32 0.33 2.64 0.66 4 1 C4.33 2.32 4.66 3.64 5 5 C5.66 5 6.32 5 7 5 C7.66 3.35 8.32 1.7 9 0 C10.5 1.375 10.5 1.375 12 3 C12 3.66 12 4.32 12 5 C12.66 5 13.32 5 14 5 C14.66 3.35 15.32 1.7 16 0 C16.99 0.33 17.98 0.66 19 1 C17.35 4.63 15.7 8.26 14 12 C11 11 11 11 9 8 C8.34 9.32 7.68 10.64 7 12 C6.34 12 5.68 12 5 12 C4.16180842 10.37750059 3.3295884 8.75191503 2.5 7.125 C2.0359375 6.22007813 1.571875 5.31515625 1.09375 4.3828125 C0 2 0 2 0 0 Z " fill="#FEFEFE" transform="translate(86,22)"/>
<path d="M0 0 C0.99 0 1.98 0 3 0 C3.33 3.3 3.66 6.6 4 10 C4.99 9.01 5.98 8.02 7 7 C9.1875 7.3125 9.1875 7.3125 11 8 C10.46375 8.556875 9.9275 9.11375 9.375 9.6875 C8.92125 10.450625 8.4675 11.21375 8 12 C8.66096786 14.65245602 8.66096786 14.65245602 10 17 C10.33 17.66 10.66 18.32 11 19 C6.25 18.25 6.25 18.25 4 16 C3.67 16.99 3.34 17.98 3 19 C2.01 19 1.02 19 0 19 C0 12.73 0 6.46 0 0 Z " fill="#FEFEFE" transform="translate(47,15)"/>
<path d="M0 0 C1.60875 -0.04125 3.2175 -0.0825 4.875 -0.125 C5.77992187 -0.14820312 6.68484375 -0.17140625 7.6171875 -0.1953125 C10 0 10 0 12 2 C12.1953125 4.3828125 12.1953125 4.3828125 12.125 7.125 C12.10695313 8.03507812 12.08890625 8.94515625 12.0703125 9.8828125 C12.04710938 10.58148438 12.02390625 11.28015625 12 12 C10.68 12 9.36 12 8 12 C7.67 9.03 7.34 6.06 7 3 C6.01 3 5.02 3 4 3 C4 5.97 4 8.94 4 12 C2.68 12 1.36 12 0 12 C0 8.04 0 4.08 0 0 Z " fill="#FEFEFE" transform="translate(59,22)"/>
<path d="M0 0 C3 0.25 3 0.25 5 2.25 C5.32752234 4.96454956 5.1308425 7.50230759 5 10.25 C4 11.25 4 11.25 2.1875 11.3828125 C1.465625 11.38023438 0.74375 11.37765625 0 11.375 C-0.721875 11.37757812 -1.44375 11.38015625 -2.1875 11.3828125 C-4 11.25 -4 11.25 -5 10.25 C-5.27314815 4.51388889 -5.27314815 4.51388889 -5 2.25 C-3 0.25 -3 0.25 0 0 Z " fill="#9B9999" transform="translate(19,11.75)"/>
<path d="M0 0 C3.625 0.375 3.625 0.375 6.125 2 C7.625 4.375 7.625 4.375 7.5 7.5 C6.625 10.375 6.625 10.375 4.625 12.375 C0.7079837 12.81022403 -1.52741649 12.92592928 -4.875 10.75 C-6.375 8.375 -6.375 8.375 -6.25 5.25 C-5.00184771 1.1489282 -4.30129241 0.47792138 0 0 Z M-0.375 2.375 C-1.035 3.035 -1.695 3.695 -2.375 4.375 C-2.05458603 6.97780568 -2.05458603 6.97780568 -1.375 9.375 C-0.055 9.375 1.265 9.375 2.625 9.375 C3.285 8.055 3.945 6.735 4.625 5.375 C3.25014468 3.83333358 3.25014468 3.83333358 1.625 2.375 C0.965 2.375 0.305 2.375 -0.375 2.375 Z " fill="#FEFEFE" transform="translate(78.375,21.625)"/>
<path d="M0 0 C1.9375 1.125 1.9375 1.125 3 3 C3.38976435 6.11811483 3.50422245 8.11019567 1.9375 10.875 C-1.1069286 12.64273274 -3.5631012 12.36823916 -7 12 C-8.9375 10.875 -8.9375 10.875 -10 9 C-10.38976435 5.88188517 -10.50422245 3.88980433 -8.9375 1.125 C-5.8930714 -0.64273274 -3.4368988 -0.36823916 0 0 Z M-4 2 C-4.99 2.66 -5.98 3.32 -7 4 C-6.67 5.65 -6.34 7.3 -6 9 C-5.01 9.33 -4.02 9.66 -3 10 C-2.01 9.34 -1.02 8.68 0 8 C-0.33 6.35 -0.66 4.7 -1 3 C-1.99 2.67 -2.98 2.34 -4 2 Z " fill="#FFD200" transform="translate(130,22)"/>
<path d="M0 0 C0.66 0 1.32 0 2 0 C2.45375 0.639375 2.9075 1.27875 3.375 1.9375 C5.21084873 4.2676157 6.12909413 4.60401298 9 5 C9 5.66 9 6.32 9 7 C5.52674819 8.1577506 2.63932552 8.06866652 -1 8 C-1.04241723 5.66705225 -1.04092937 3.33297433 -1 1 C-0.67 0.67 -0.34 0.34 0 0 Z " fill="#FEFEFE" transform="translate(6,34)"/>
<path d="M0 0 C0 2.64 0 5.28 0 8 C-3 8 -3 8 -5 6.125 C-5.66 5.42375 -6.32 4.7225 -7 4 C-7.99 3.34 -8.98 2.68 -10 2 C-6.5980513 -0.09350689 -3.94727588 -0.17942163 0 0 Z " fill="#FFFFFF" transform="translate(40,8)"/>
<path d="M0 0 C0.99 0 1.98 0 3 0 C3 0.99 3 1.98 3 3 C2.01 3 1.02 3 0 3 C0 2.01 0 1.02 0 0 Z " fill="#FFFFFF" transform="translate(23,38)"/>
<path d="M0 0 C0.66 0 1.32 0 2 0 C2 0.66 2 1.32 2 2 C1.34 2 0.68 2 0 2 C0 1.34 0 0.68 0 0 Z " fill="#FFFFFF" transform="translate(37,20)"/>
<path d="M0 0 C0.66 0 1.32 0 2 0 C2 0.66 2 1.32 2 2 C1.34 2 0.68 2 0 2 C0 1.34 0 0.68 0 0 Z " fill="#FFFFFF" transform="translate(10,12)"/>
</svg>
